{"title":"UFC 115: Liddell Vs Franklin [SatRiP-XviD-Mp3-ENG][TNTVillage.Sc","uid":5624685,"size":1567254528,"categoryP":"video","categoryS":"tv_shows","magnet":"?xt=urn:btih:95505c96f257f4e953adbcc4ab1a1559f370ab2b&amp;dn=UFC+115%3A+Liddell+Vs+Franklin+%5BSatRiP-XviD-Mp3-ENG%5D%5BTNTVillage.Sc&amp;tr=udp%3A%2F%2Ftracker.openbittorrent.com%3A80&amp;tr=udp%3A%2F%2Fopen.demonii.com%3A1337&amp;tr=udp%3A%2F%2Ftracker.coppersurfer.tk%3A6969&amp;tr=udp%3A%2F%2Fexodus.desync.com%3A6969","seeders":1,"leechers":0,"uploader":"maxneb","files":1,"time":1276434987,"description":"UFC 115: Liddell Vs Franklin [SatRiP-XviD-Mp3-ENG][TNTVillage.Scambioetico]\n\n\n\nGeneral\nComplete name                    : C:UFC.115.PPV.HDTV.XviD-KYR.avi\nFormat                           : AVI\nFormat/Info                      : Audio Video Interleave\nFile size                        : 1.46 GiB\nDuration                         : 2h 56mn\nOverall bit rate                 : 1 181 Kbps\nWriting application              : VirtualDubMod 1.5.10.2 (build 2540/release)\nWriting library                  : VirtualDubMod build 2540/release\n\nVideo\nFormat                           : MPEG-4 Visual\nFormat profile                   : Streaming Video@L1\nFormat settings, BVOP            : Yes\nFormat settings, QPel            : No\nFormat settings, GMC             : No warppoints\nFormat settings, Matrix          : Default\nCodec ID                         : XVID\nCodec ID/Hint                    : XviD\nDuration                         : 2h 56mn\nBit rate                         : 1 034 Kbps\nWidth                            : 624 pixels\nHeight                           : 352 pixels\nDisplay aspect ratio             : 16/9\nFrame rate                       : 29.970 fps\nResolution                       : 24 bits\nColorimetry                      : 4:2:0\nScan type                        : Progressive\nBits/(Pixel*Frame)               : 0.157\nStream size                      : 1.28 GiB (88%)\nWriting library                  : XviD 55\n\nAudio\nFormat                           : MPEG Audio\nFormat version                   : Version 1\nFormat profile                   : Layer 3\nCodec ID                         : 55\nCodec ID/Hint                    : MP3\nDuration                         : 2h 56mn\nBit rate mode                    : Variable\nBit rate                         : 133 Kbps\nNominal bit rate                 : 128 Kbps\nChannel(s)                       : 2 channels\nSampling rate                    : 48.0 KHz\nResolution                       : 16 bits\nStream size                      : 168 MiB (11%)\nAlignment                        : Aligned on interleaves\nInterleave, duration             : 24 ms (0.72 video frame)\nInterleave, preload duration     : 507 ms\nWriting library                  : LAME3.90.\nEncoding settings                : ABR\n\n &lt;a href=&quot;\nhttp://uptiki.com/images/vs0tthpkrhgtlusi044a.png&quot; rel=&quot;nofollow&quot; target=&quot;_NEW&quot;&gt;\nhttp://uptiki.com/images/vs0tthpkrhgtlusi044a.png&lt;/a&gt; &lt;a href=&quot;\nhttp://uptiki.com/images/wjhduq1mgh3b0v08a.png&quot; rel=&quot;nofollow&quot; target=&quot;_NEW&quot;&gt;\nhttp://uptiki.com/images/wjhduq1mgh3b0v08a.png&lt;/a&gt; &lt;a href=&quot;\nhttp://uptiki.com/images/9ldaagwa2qe3iby6ybur.png&quot; rel=&quot;nofollow&quot; target=&quot;_NEW&quot;&gt;\nhttp://uptiki.com/images/9ldaagwa2qe3iby6ybur.png&lt;/a&gt; &lt;a href=&quot;\nhttp://uptiki.com/images/iml7euqlol60v1tlfuyi.png&quot; rel=&quot;nofollow&quot; target=&quot;_NEW&quot;&gt;\nhttp://uptiki.com/images/iml7euqlol60v1tlfuyi.png&lt;/a&gt; &lt;a href=&quot;\nhttp://uptiki.com/images/m4kai4fouyeick8i4zw.png&quot; rel=&quot;nofollow&quot; target=&quot;_NEW&quot;&gt;\nhttp://uptiki.com/images/m4kai4fouyeick8i4zw.png&lt;/a&gt; &lt;a href=&quot;\nhttp://uptiki.com/images/0fc2hec4du0jop0ok36k.png&quot; rel=&quot;nofollow&quot; target=&quot;_NEW&quot;&gt;\nhttp://uptiki.com/images/0fc2hec4du0jop0ok36k.png&lt;/a&gt; &lt;a href=&quot;\nhttp://uptiki.com/images/j9g7022ovdxhroho4m4.png&quot; rel=&quot;nofollow&quot; target=&quot;_NEW&quot;&gt;\nhttp://uptiki.com/images/j9g7022ovdxhroho4m4.png&lt;/a&gt; &lt;a href=&quot;\nhttp://uptiki.com/images/9ir24blxlkmhjgr8qd8r.png&quot; rel=&quot;nofollow&quot; target=&quot;_NEW&quot;&gt;\nhttp://uptiki.com/images/9ir24blxlkmhjgr8qd8r.png&lt;/a&gt;","torrent":{"xt":"urn:btih:95505c96f257f4e953adbcc4ab1a1559f370ab2b","amp;dn":"UFC+115%3A+Liddell+Vs+Franklin+%5BSatRiP-XviD-Mp3-ENG%5D%5BTNTVillage.Sc","amp;tr":["udp%3A%2F%2Ftracker.openbittorrent.com%3A80","udp%3A%2F%2Fopen.demonii.com%3A1337","udp%3A%2F%2Ftracker.coppersurfer.tk%3A6969","udp%3A%2F%2Fexodus.desync.com%3A6969"],"infoHash":"95505c96f257f4e953adbcc4ab1a1559f370ab2b","infoHashBuffer":{"type":"Buffer","data":[149,80,92,150,242,87,244,233,83,173,188,196,171,26,21,89,243,112,171,43]},"announce":[],"urlList":[]}}